HIERARCHY
ROOT Hips
{
	OFFSET -3.958830 18.904000 13.208200
	CHANNELS 6 Xposition Yposition Zposition Zrotation Yrotation Xrotation 
	JOINT LHipJoint
	{
		OFFSET 0.000000 0.000000 0.000000
		CHANNELS 3 Zrotation Yrotation Xrotation
		JOINT LeftUpLeg
		{
			OFFSET 1.800000 -1.400000 0.085000
			CHANNELS 3 Zrotation Yrotation Xrotation
			JOINT LeftLeg
			{
				OFFSET 2.215000 -6.000000 0.000000
				CHANNELS 3 Zrotation Yrotation Xrotation
				JOINT LeftFoot
				{
					OFFSET 2.500000 -6.900000 0.000000
					CHANNELS 3 Zrotation Yrotation Xrotation
					JOINT LeftToeBase
					{
						OFFSET 0.200000 -0.500000 1.950000
						CHANNELS 3 Zrotation Yrotation Xrotation
						End Site
						{
							OFFSET 0.000000 0.000000 0.000000
						}
					}
				}
			}
		}
	}
	JOINT RHipJoint
	{
		OFFSET 0.000000 0.000000 0.000000
		CHANNELS 3 Zrotation Yrotation Xrotation
		JOINT RightUpLeg
		{
			OFFSET -1.800000 -1.400000 0.085000
			CHANNELS 3 Zrotation Yrotation Xrotation
			JOINT RightLeg
			{
				OFFSET -2.215000 -6.000000 0.000000
				CHANNELS 3 Zrotation Yrotation Xrotation
				JOINT RightFoot
				{
					OFFSET -2.500000 -6.900000 0.000000
					CHANNELS 3 Zrotation Yrotation Xrotation
					JOINT RightToeBase
					{
						OFFSET -0.200000 -0.500000 1.950000
						CHANNELS 3 Zrotation Yrotation Xrotation
						End Site
						{
							OFFSET 0.000000 0.000000 0.000000
						}
					}
				}
			}
		}
	}
	JOINT LowerBack
	{
		OFFSET 0.000000 0.000000 0.000000
		CHANNELS 3 Zrotation Yrotation Xrotation
		JOINT Spine
		{
			OFFSET -0.087000 1.940000 -0.288900
			CHANNELS 3 Zrotation Yrotation Xrotation
			JOINT Spine1
			{
				OFFSET 0.000000 1.950000 0.060000
				CHANNELS 3 Zrotation Yrotation Xrotation
				JOINT Neck
				{
					OFFSET 0.000000 0.000000 0.000000
					CHANNELS 3 Zrotation Yrotation Xrotation
					JOINT Neck1
					{
						OFFSET 0.000000 1.600000 0.340000
						CHANNELS 3 Zrotation Yrotation Xrotation
						JOINT Head
						{
							OFFSET 0.000000 1.667000 -0.240000
							CHANNELS 3 Zrotation Yrotation Xrotation
							End Site
							{
								OFFSET 0.000000 0.000000 0.000000
							}
						}
					}
				}
				JOINT LeftShoulder
				{
					OFFSET 0.000000 0.000000 0.000000
					CHANNELS 3 Zrotation Yrotation Xrotation
					JOINT LeftArm
					{
						OFFSET 2.700000 1.550000 -0.730000
						CHANNELS 3 Zrotation Yrotation Xrotation
						JOINT LeftForeArm
						{
							OFFSET 5.450000 0.000000 0.000000
							CHANNELS 3 Zrotation Yrotation Xrotation
							JOINT LeftHand
							{
								OFFSET 3.450000 0.000000 0.000000
								CHANNELS 3 Zrotation Yrotation Xrotation
								JOINT LeftHandIndex1
								{
									OFFSET 0.750000 0.000000 0.000000
									CHANNELS 3 Zrotation Yrotation Xrotation
									End Site
									{
										OFFSET 0.000000 0.000000 0.000000
									}
								}
							}
						}
					}
				}
				JOINT RightShoulder
				{
					OFFSET 0.000000 0.000000 0.000000
					CHANNELS 3 Zrotation Yrotation Xrotation
					JOINT RightArm
					{
						OFFSET -2.700000 1.550000 -0.730000
						CHANNELS 3 Zrotation Yrotation Xrotation
						JOINT RightForeArm
						{
							OFFSET -5.450000 0.000000 0.000000
							CHANNELS 3 Zrotation Yrotation Xrotation
							JOINT RightHand
							{
								OFFSET -3.450000 0.000000 0.000000
								CHANNELS 3 Zrotation Yrotation Xrotation
								JOINT RightHandIndex1
								{
									OFFSET -0.750000 0.000000 0.000000
									CHANNELS 3 Zrotation Yrotation Xrotation
									End Site
									{
										OFFSET 0.000000 0.000000 0.000000
									}
								}
							}
						}
					}
				}
			}
		}
	}
}
MOTION
Frames: 14
Frame Time: 0.016667
0.103350 15.890190 -3.372680 2.131277 16.625823 3.980629 -15.288368 11.764664 4.620822 0.554155 -11.977589 -34.145708 -5.556726 8.794994 41.896502 0.235867 6.933924 1.944659 0.164320 0.047980 0.148060 18.433387 -8.789228 4.440504 -7.548367 6.481362 -51.987186 -0.674788 -5.532381 38.806050 -0.413591 -4.345117 2.604563 -0.005300 -0.138510 0.032070 -3.795123 -2.488399 -9.360375 3.555699 -7.594018 45.698163 -5.945291 -4.988621 -7.916788 1.349015 -3.487048 -15.979759 -12.358777 1.150657 41.159167 4.648040 -3.694830 -19.371020 -35.957258 -27.006036 6.704181 -32.275418 -8.282154 -4.882823 0.841097 -13.118602 -0.802229 -3.352637 2.839176 0.589810 -0.296890 0.279440 0.011680 33.219838 29.154681 10.572776 48.936600 4.167993 -12.880034 82.262140 48.459440 27.930390 2.580492 -1.552367 -0.112360 0.215240 0.047200 -0.117350 
0.092530 15.829710 -3.399660 2.079049 16.744289 3.902954 -15.300117 11.552875 4.730452 1.085310 -12.588330 -35.270701 -6.096569 9.579135 44.211290 0.348569 7.463483 1.757196 0.174050 0.066320 0.146210 18.469935 -8.608148 4.545097 -8.070720 6.893761 -53.165980 -0.233323 -5.825944 40.071621 -0.461693 -4.578199 2.521020 -0.002670 -0.151350 0.032340 -3.807137 -2.418321 -9.482198 3.503580 -7.630350 47.426638 -5.974160 -4.926073 -8.185633 1.319705 -3.356910 -16.212837 -12.384665 1.063516 42.133010 5.173790 -4.123110 -19.569640 -36.191902 -27.440075 6.839680 -32.306145 -7.601416 -5.380642 0.834624 -13.933115 -0.803080 -3.316970 2.857052 0.596000 -0.310050 0.294190 0.013920 33.483109 29.568292 10.652888 49.009390 4.080028 -13.235986 83.803932 49.746174 29.533047 2.593813 -1.543942 -0.099800 0.213220 0.042280 -0.111410 
0.082380 15.718740 -3.453000 2.178529 17.498524 3.520275 -15.309665 11.201087 4.897815 1.506366 -13.653144 -36.764054 -6.765853 10.843347 48.152892 0.546529 8.325408 1.453003 0.224980 0.135530 0.184210 18.538966 -8.346651 4.684889 -9.519481 7.250501 -54.924127 0.830501 -6.553539 42.207667 -0.574025 -5.016418 2.351422 0.016650 -0.207300 0.040510 -3.862306 -2.250520 -9.668463 3.843457 -8.073043 50.828663 -6.599399 -4.919455 -8.456111 1.445645 -2.909818 -16.645601 -11.953215 0.932172 43.656545 5.858860 -4.299970 -21.413460 -36.472655 -28.386414 7.035316 -31.937868 -7.160770 -6.077953 0.665806 -14.956044 -0.776478 -3.241768 2.882330 0.625530 -0.353590 0.350990 0.015680 33.365041 30.332872 10.745911 49.247149 4.387487 -13.730417 87.545342 52.469792 33.456511 2.646387 -1.513452 -0.065080 0.203670 0.011960 -0.110990 
0.076300 15.602950 -3.500130 2.056091 17.981231 3.109502 -15.337130 10.866554 5.067689 2.371644 -14.636810 -38.614563 -7.529172 12.404543 52.278312 0.754644 9.308086 1.122220 0.251050 0.174580 0.202530 18.597752 -7.997409 4.859082 -10.940835 7.872983 -56.865205 1.672699 -7.375608 45.242699 -0.704381 -5.613588 2.140348 0.028740 -0.238610 0.039490 -3.862842 -2.246148 -9.881482 3.982797 -8.495574 54.674614 -6.507904 -4.951997 -8.855308 1.560163 -2.794505 -17.384465 -12.337417 1.540369 45.716962 6.310220 -4.298470 -22.243020 -37.052857 -29.563613 7.386808 -32.040493 -6.047903 -7.009229 0.856327 -16.120642 -0.809053 -3.173680 2.899716 0.654570 -0.382700 0.388530 0.013310 33.701607 31.548831 10.883813 48.606778 4.500318 -14.180362 91.881236 54.221797 37.300823 2.682180 -1.469533 -0.051570 0.210970 0.002700 -0.112180 
0.068780 15.477390 -3.535170 1.601016 18.372149 2.842431 -15.383040 10.512878 5.287689 3.784312 -15.542035 -41.413260 -8.257321 14.408258 57.088452 1.006135 10.490317 0.739513 0.278210 0.211650 0.218300 18.649225 -7.567947 5.035825 -12.197139 8.745015 -58.847212 2.323336 -8.263801 48.668484 -0.853102 -6.272568 1.910571 0.042820 -0.265360 0.039450 -3.817237 -2.370372 -10.114603 4.394598 -8.893462 57.857014 -6.028457 -4.754637 -8.739193 1.747535 -3.379330 -18.208575 -14.303840 2.684889 47.914203 6.603830 -4.702120 -22.852270 -37.011550 -30.771599 7.597540 -33.316555 -5.396230 -7.708880 1.452798 -16.801178 -0.926523 -3.117432 2.907456 0.680050 -0.413720 0.422620 0.011100 33.511695 33.241859 11.179272 47.911921 5.034144 -14.577781 96.011795 56.029333 41.377297 2.727116 -1.409799 -0.037030 0.222340 -0.002270 -0.107240 
0.060880 15.354900 -3.567210 1.067382 18.533731 2.621821 -15.419743 10.204661 5.463913 5.065765 -16.196108 -43.901978 -8.682855 16.237188 61.326110 1.228529 11.541038 0.422348 0.290580 0.228890 0.223700 18.695942 -7.193611 5.200843 -13.265645 9.571992 -60.664830 2.990793 -9.111919 51.556844 -0.979679 -6.857001 1.717948 0.054500 -0.268990 0.036840 -3.780819 -2.454429 -10.313676 4.734846 -9.171612 60.890874 -5.803858 -4.478035 -8.660686 1.970177 -3.619708 -18.791477 -15.568436 3.611153 49.930652 6.538290 -5.083290 -22.507850 -37.330898 -31.704188 7.644231 -33.922477 -5.055717 -8.069000 2.537890 -16.191389 -1.077473 -3.114842 2.885244 0.692730 -0.422650 0.435750 0.012040 33.554121 34.429022 11.305390 46.890505 5.105248 -14.907767 100.715998 56.262353 44.840173 2.742513 -1.379670 -0.036580 0.240120 0.000170 -0.103660 
0.055940 15.251570 -3.592440 0.794528 19.041829 2.819595 -15.461960 9.935412 5.643926 5.901120 -16.951780 -46.370790 -8.901548 17.687714 64.782316 1.423390 12.371705 0.186940 0.294240 0.238670 0.220220 18.729826 -6.838271 5.334187 -14.952079 9.869690 -62.315521 4.307009 -10.239678 53.517037 -1.076225 -7.382206 1.549103 0.063050 -0.266490 0.033930 -3.720751 -2.598172 -10.490060 5.004651 -9.548967 63.460122 -5.472700 -4.420443 -8.542353 2.195676 -3.817777 -19.225919 -16.600832 4.386587 51.306606 5.905590 -5.348240 -21.417750 -38.259541 -32.456854 7.705766 -34.095049 -4.825744 -8.383957 3.663615 -15.325769 -1.202517 -3.127823 2.882780 0.680030 -0.417530 0.432070 0.013420 34.118155 35.396534 11.253622 45.559819 5.369338 -15.053925 101.779796 56.729859 45.980126 2.733590 -1.377438 -0.032290 0.244340 0.001930 -0.096570 
0.054490 15.145260 -3.610260 0.370520 19.742524 3.167331 -15.500642 9.688515 5.768169 6.410812 -17.582371 -48.687416 -8.116921 18.489976 68.199995 1.579811 13.033364 0.009413 0.300380 0.244270 0.217990 18.767483 -6.464144 5.517998 -17.188170 10.050459 -64.200768 6.634883 -12.003873 55.475890 -1.199139 -8.044731 1.343415 0.071630 -0.261870 0.028180 -3.666363 -2.767261 -10.655472 5.676262 -10.141897 65.421641 -5.158729 -4.312764 -7.979679 2.408242 -4.212406 -19.687012 -18.197297 5.263937 52.673050 5.208630 -5.959530 -19.958120 -38.681485 -33.293409 7.646908 -34.126092 -5.064679 -8.091388 3.750383 -13.462065 -1.186104 -3.154360 2.857042 0.661570 -0.411640 0.420360 0.018200 34.259047 36.448919 11.322789 44.528177 5.802654 -15.207985 103.522447 57.476405 47.898682 2.739337 -1.367490 -0.028460 0.247600 0.000800 -0.088800 
0.046160 15.044540 -3.622320 0.317231 20.281800 3.674316 -15.530360 9.439762 5.889142 6.931139 -18.131743 -50.964666 -7.574232 19.307080 71.002623 1.720948 13.601689 -0.135294 0.308800 0.257480 0.208930 18.806262 -6.148014 5.679121 -19.245496 10.086344 -65.955460 8.454061 -13.423181 56.968337 -1.305618 -8.576766 1.181795 0.083780 -0.249500 0.023580 -3.628667 -2.846064 -10.804857 5.752254 -10.342070 67.353210 -4.870831 -4.353808 -7.472049 2.404242 -4.457327 -19.875195 -19.089303 5.792767 53.426461 5.663490 -6.550430 -19.305560 -38.842338 -33.939775 7.588618 -34.005396 -5.175933 -7.915779 4.139313 -11.991351 -1.203083 -3.179840 2.840578 0.646650 -0.408930 0.411750 0.028910 34.469558 37.163414 11.189854 43.671742 6.777347 -15.070442 104.281026 57.801301 48.821795 2.740298 -1.368766 -0.025250 0.255600 -0.002380 -0.075270 
0.031040 14.971070 -3.637650 0.283659 20.169776 4.518111 -15.568166 9.226700 6.013544 7.895276 -18.388725 -53.269320 -7.862648 20.309107 72.484310 1.814769 14.017490 -0.245882 0.323030 0.285650 0.207970 18.826468 -5.848319 5.839982 -20.645952 10.375068 -67.753411 9.607975 -14.191037 57.821635 -1.379308 -8.869373 1.094800 0.102000 -0.243820 0.017530 -3.559151 -2.950284 -10.940889 5.277956 -9.829622 69.319374 -4.228120 -4.198436 -6.898216 2.323174 -4.491982 -20.042517 -19.330301 6.077540 54.085424 6.358290 -6.732550 -19.597340 -38.565602 -34.658414 7.516588 -34.014044 -5.856038 -7.629701 5.037301 -10.221961 -1.251901 -3.221140 2.805635 0.642910 -0.412440 0.416050 0.036330 34.426042 37.879314 10.974505 42.548335 7.899754 -14.941766 103.475048 58.050362 48.351439 2.722270 -1.373179 -0.022620 0.271900 -0.007140 -0.065080 
0.024590 14.915340 -3.644850 0.201803 20.425980 5.226768 -15.599126 9.050110 6.127593 8.670733 -18.648805 -55.333620 -7.798645 20.980307 73.935076 1.904970 14.350864 -0.325686 0.336440 0.313880 0.200640 18.843652 -5.602434 5.960657 -22.204121 10.373161 -69.032158 11.283053 -15.135866 58.000591 -1.443258 -9.118718 1.022404 0.115820 -0.237470 0.015260 -3.502130 -3.041463 -11.052934 5.332228 -9.775875 71.306055 -3.810254 -4.057780 -6.358521 2.314610 -4.603533 -20.202749 -19.733692 5.970944 54.559865 6.842790 -7.439100 -19.834290 -38.470523 -35.372347 7.444946 -33.754562 -6.655470 -7.339985 5.544952 -8.517659 -1.259317 -3.257398 2.780750 0.628650 -0.415470 0.418930 0.049420 34.380355 38.709905 10.785264 41.347783 9.386987 -14.674901 103.935503 58.136987 48.810437 2.716894 -1.382352 -0.010860 0.282720 -0.015070 -0.046820 
0.028990 14.878350 -3.646130 0.250126 21.293517 5.996661 -15.611327 8.895646 6.215789 8.565267 -19.211757 -56.927973 -6.854373 20.697729 75.218950 1.932546 14.454930 -0.352523 0.351530 0.339900 0.209080 18.871951 -5.430026 6.052010 -24.022180 9.922602 -69.931320 12.971920 -16.070734 57.759680 -1.497828 -9.311693 0.961229 0.126280 -0.237550 0.015780 -3.490949 -3.054236 -11.154445 5.742168 -10.349968 73.094788 -4.269932 -4.194678 -5.550491 2.531105 -4.026080 -20.826428 -18.736871 5.612824 55.937414 7.723220 -7.799860 -20.264700 -38.225851 -36.691775 7.675830 -33.157833 -7.456672 -7.110568 6.039742 -6.568785 -1.265259 -3.300443 2.738183 0.630100 -0.422410 0.432430 0.053520 33.456666 39.952989 10.401705 40.403463 11.970919 -14.292557 104.066717 57.912424 48.669924 2.719948 -1.380155 -0.002290 0.293620 -0.022440 -0.037620 
0.038020 14.839730 -3.644400 0.090908 21.599812 6.899048 -15.626886 8.746418 6.285273 8.786463 -19.280323 -58.755012 -5.815704 20.545010 76.499857 1.970026 14.591020 -0.382097 0.348140 0.341050 0.204470 18.898440 -5.221978 6.185555 -25.927221 9.761564 -71.077277 15.044733 -17.070602 57.269573 -1.543480 -9.507647 0.910874 0.125450 -0.224230 0.013950 -3.472925 -3.078849 -11.254172 6.183760 -10.576313 73.813732 -4.758915 -4.177957 -4.584201 2.773323 -3.493471 -21.337262 -17.654366 5.779742 57.192900 7.964460 -7.546790 -19.072170 -37.947796 -37.620204 7.972977 -32.773834 -7.130796 -7.295284 6.177887 -6.384178 -1.268922 -3.310407 2.742598 0.613220 -0.410040 0.425110 0.058970 32.509347 40.876233 10.199720 39.707923 14.177538 -13.927798 103.224036 59.055175 49.015707 2.743443 -1.347295 0.000210 0.293600 -0.025350 -0.030790 
0.035820 14.810560 -3.642650 -0.039601 21.966612 7.700522 -15.644282 8.614030 6.363803 9.175003 -19.312063 -60.598586 -4.915401 20.380372 77.575327 1.981822 14.701773 -0.416456 0.350780 0.346020 0.208320 18.919391 -5.032522 6.286050 -27.523303 9.590676 -72.002417 16.813980 -17.891994 56.722425 -1.583804 -9.659079 0.868418 0.131430 -0.220940 0.016890 -3.446039 -3.121977 -11.343833 6.487875 -10.752280 74.303525 -5.119409 -4.203340 -3.285911 3.020609 -2.847233 -22.047244 -16.407976 6.243283 58.640685 7.733140 -6.728800 -17.861860 -37.685563 -38.709630 8.305087 -32.261884 -7.125761 -7.171320 6.575685 -5.056034 -1.261905 -3.354629 2.724389 0.606160 -0.397440 0.423150 0.060160 31.551502 41.802446 10.067815 39.221882 16.042415 -13.787271 102.780776 60.803214 50.071884 2.775282 -1.283382 -0.000400 0.288280 -0.027000 -0.034610 
